<mxfile host="app.diagrams.net" modified="2023-02-08T04:20:23.293Z" agent="5.0 (Macintosh)" etag="kSW3WguEQFXRtrqP_2qM" version="20.8.17" type="github">
  <diagram name="Page-1" id="zq42hBTnkzEDLu3Fidij">
    <mxGraphModel dx="918" dy="675" grid="1" gridSize="10" guides="1" tooltips="1" connect="1" arrows="1" fold="1" page="1" pageScale="1" pageWidth="850" pageHeight="1100" math="0" shadow="0">
      <root>
        <mxCell id="0" />
        <mxCell id="1" parent="0" />
        <mxCell id="xyvTZJhsJyeAS4RkJOcC-16" value="" style="rounded=1;html=1;fillColor=#fff2cc;strokeColor=#d6b656;whiteSpace=wrap;strokeWidth=1;perimeterSpacing=0;arcSize=4;" parent="1" vertex="1">
          <mxGeometry x="160" y="180" width="540" height="490" as="geometry" />
        </mxCell>
        <mxCell id="xyvTZJhsJyeAS4RkJOcC-21" value="" style="rounded=1;html=1;fillColor=#ffe6cc;strokeColor=#d79b00;whiteSpace=wrap;strokeWidth=1;perimeterSpacing=0;arcSize=4;" parent="1" vertex="1">
          <mxGeometry x="171.25" y="225" width="318.75" height="425" as="geometry" />
        </mxCell>
        <mxCell id="xyvTZJhsJyeAS4RkJOcC-23" value="" style="rounded=1;html=1;whiteSpace=wrap;strokeWidth=1;perimeterSpacing=0;arcSize=4;fillColor=#fad9d5;strokeColor=#ae4132;" parent="1" vertex="1">
          <mxGeometry x="185" y="270" width="290" height="110" as="geometry" />
        </mxCell>
        <mxCell id="xyvTZJhsJyeAS4RkJOcC-24" value="&lt;div&gt;Public Subnet&lt;/div&gt;" style="text;html=1;align=center;verticalAlign=middle;resizable=0;points=[];autosize=1;strokeColor=none;fillColor=none;fontFamily=Verdana;" parent="1" vertex="1">
          <mxGeometry x="185" y="267" width="110" height="30" as="geometry" />
        </mxCell>
        <mxCell id="xyvTZJhsJyeAS4RkJOcC-25" value="" style="outlineConnect=0;dashed=0;verticalLabelPosition=bottom;verticalAlign=top;align=center;html=1;shape=mxgraph.aws3.ec2;fillColor=#F58534;gradientColor=none;rounded=1;labelBackgroundColor=none;strokeWidth=1;fontFamily=Verdana;" parent="1" vertex="1">
          <mxGeometry x="304" y="285.25" width="60" height="54.75" as="geometry" />
        </mxCell>
        <mxCell id="xyvTZJhsJyeAS4RkJOcC-26" value="&lt;div style=&quot;font-size: 9px;&quot;&gt;&lt;font style=&quot;font-size: 9px;&quot;&gt;&lt;br&gt;Wordpress&lt;br&gt;EC2 Instance&lt;/font&gt;&lt;/div&gt;" style="text;html=1;align=center;verticalAlign=middle;resizable=0;points=[];autosize=1;strokeColor=none;fillColor=none;fontFamily=Verdana;" parent="1" vertex="1">
          <mxGeometry x="230" y="284.25" width="80" height="50" as="geometry" />
        </mxCell>
        <mxCell id="xyvTZJhsJyeAS4RkJOcC-27" value="" style="rounded=1;html=1;whiteSpace=wrap;strokeWidth=1;perimeterSpacing=0;arcSize=4;fillColor=#fad9d5;strokeColor=#ae4132;" parent="1" vertex="1">
          <mxGeometry x="185" y="527" width="290" height="103" as="geometry" />
        </mxCell>
        <mxCell id="xyvTZJhsJyeAS4RkJOcC-28" value="&lt;div&gt;Private Subnet&lt;/div&gt;" style="text;html=1;align=center;verticalAlign=middle;resizable=0;points=[];autosize=1;strokeColor=none;fillColor=none;fontFamily=Verdana;" parent="1" vertex="1">
          <mxGeometry x="185" y="529" width="110" height="30" as="geometry" />
        </mxCell>
        <mxCell id="xyvTZJhsJyeAS4RkJOcC-29" value="" style="outlineConnect=0;dashed=0;verticalLabelPosition=bottom;verticalAlign=top;align=center;html=1;shape=mxgraph.aws3.mysql_db_instance;fillColor=#2E73B8;gradientColor=none;rounded=1;labelBackgroundColor=none;strokeWidth=1;fontFamily=Verdana;fontSize=9;" parent="1" vertex="1">
          <mxGeometry x="309" y="550" width="50" height="49" as="geometry" />
        </mxCell>
        <mxCell id="xyvTZJhsJyeAS4RkJOcC-30" value="&lt;div&gt;Mysql Instance&lt;/div&gt;&lt;div&gt;&lt;br&gt;&lt;/div&gt;" style="text;html=1;align=center;verticalAlign=middle;resizable=0;points=[];autosize=1;strokeColor=none;fillColor=none;fontSize=9;fontFamily=Verdana;" parent="1" vertex="1">
          <mxGeometry x="289" y="598" width="90" height="40" as="geometry" />
        </mxCell>
        <mxCell id="xyvTZJhsJyeAS4RkJOcC-32" value="" style="endArrow=classic;html=1;rounded=0;fontFamily=Verdana;fontSize=9;exitX=1;exitY=0.5;exitDx=0;exitDy=0;exitPerimeter=0;" parent="1" source="xyvTZJhsJyeAS4RkJOcC-25" edge="1">
          <mxGeometry width="50" height="50" relative="1" as="geometry">
            <mxPoint x="400" y="314" as="sourcePoint" />
            <mxPoint x="530" y="315" as="targetPoint" />
          </mxGeometry>
        </mxCell>
        <mxCell id="xyvTZJhsJyeAS4RkJOcC-37" value="&lt;div&gt;Security Group&lt;/div&gt;" style="text;html=1;align=center;verticalAlign=middle;resizable=0;points=[];autosize=1;strokeColor=none;fillColor=none;fontSize=11;fontFamily=Verdana;" parent="1" vertex="1">
          <mxGeometry x="510" y="352" width="110" height="30" as="geometry" />
        </mxCell>
        <mxCell id="xyvTZJhsJyeAS4RkJOcC-38" value="" style="aspect=fixed;perimeter=ellipsePerimeter;html=1;align=center;shadow=0;dashed=0;spacingTop=3;image;image=img/lib/active_directory/internet_cloud.svg;rounded=1;labelBackgroundColor=none;strokeWidth=1;fontFamily=Verdana;fontSize=11;" parent="1" vertex="1">
          <mxGeometry x="819.45" y="360" width="111.11" height="70" as="geometry" />
        </mxCell>
        <mxCell id="xyvTZJhsJyeAS4RkJOcC-39" value="&lt;div&gt;Internet&lt;/div&gt;" style="text;html=1;align=center;verticalAlign=middle;resizable=0;points=[];autosize=1;strokeColor=none;fillColor=none;fontSize=11;fontFamily=Verdana;" parent="1" vertex="1">
          <mxGeometry x="831" y="381" width="70" height="30" as="geometry" />
        </mxCell>
        <mxCell id="xyvTZJhsJyeAS4RkJOcC-51" value="" style="edgeStyle=orthogonalEdgeStyle;curved=1;rounded=0;orthogonalLoop=1;jettySize=auto;html=1;fontFamily=Verdana;fontSize=11;endFill=1;entryX=0;entryY=0.5;entryDx=0;entryDy=0;entryPerimeter=0;" parent="1" target="xyvTZJhsJyeAS4RkJOcC-46" edge="1">
          <mxGeometry relative="1" as="geometry">
            <mxPoint x="600" y="316" as="sourcePoint" />
            <mxPoint x="675" y="316" as="targetPoint" />
          </mxGeometry>
        </mxCell>
        <mxCell id="xyvTZJhsJyeAS4RkJOcC-46" value="" style="outlineConnect=0;dashed=0;verticalLabelPosition=bottom;verticalAlign=top;align=center;html=1;shape=mxgraph.aws3.internet_gateway;fillColor=#F58534;gradientColor=none;rounded=1;labelBackgroundColor=none;strokeWidth=1;fontFamily=Verdana;fontSize=11;" parent="1" vertex="1">
          <mxGeometry x="662" y="360" width="69" height="72" as="geometry" />
        </mxCell>
        <mxCell id="xyvTZJhsJyeAS4RkJOcC-47" value="&lt;div&gt;Internet Gateway&lt;/div&gt;" style="text;html=1;align=center;verticalAlign=middle;resizable=0;points=[];autosize=1;strokeColor=none;fillColor=none;fontSize=11;fontFamily=Verdana;" parent="1" vertex="1">
          <mxGeometry x="636.5" y="433" width="120" height="30" as="geometry" />
        </mxCell>
        <mxCell id="xyvTZJhsJyeAS4RkJOcC-53" value="" style="endArrow=classic;html=1;rounded=0;fontFamily=Verdana;fontSize=11;curved=1;" parent="1" edge="1">
          <mxGeometry width="50" height="50" relative="1" as="geometry">
            <mxPoint x="732" y="400" as="sourcePoint" />
            <mxPoint x="821" y="400" as="targetPoint" />
          </mxGeometry>
        </mxCell>
        <mxCell id="xyvTZJhsJyeAS4RkJOcC-70" value="port 80" style="rounded=1;arcSize=10;dashed=1;strokeColor=#ff0000;fillColor=none;gradientColor=none;dashPattern=8 4;strokeWidth=2;labelBackgroundColor=none;fontFamily=Verdana;fontSize=11;" parent="1" vertex="1">
          <mxGeometry x="530" y="281.75" width="70" height="65" as="geometry" />
        </mxCell>
        <mxCell id="xyvTZJhsJyeAS4RkJOcC-76" value="&lt;div&gt;Security Group&lt;/div&gt;" style="text;html=1;align=center;verticalAlign=middle;resizable=0;points=[];autosize=1;strokeColor=none;fillColor=none;fontSize=11;fontFamily=Verdana;" parent="1" vertex="1">
          <mxGeometry x="185" y="430" width="110" height="30" as="geometry" />
        </mxCell>
        <mxCell id="xyvTZJhsJyeAS4RkJOcC-77" value="port 3306" style="rounded=1;arcSize=10;dashed=1;strokeColor=#ff0000;fillColor=none;gradientColor=none;dashPattern=8 4;strokeWidth=2;labelBackgroundColor=none;fontFamily=Verdana;fontSize=11;" parent="1" vertex="1">
          <mxGeometry x="299" y="415.5" width="70" height="65" as="geometry" />
        </mxCell>
        <mxCell id="xyvTZJhsJyeAS4RkJOcC-79" value="" style="endArrow=classic;startArrow=classic;html=1;rounded=0;fontFamily=Verdana;fontSize=11;curved=1;exitX=0.5;exitY=0;exitDx=0;exitDy=0;exitPerimeter=0;entryX=0.5;entryY=1;entryDx=0;entryDy=0;" parent="1" source="xyvTZJhsJyeAS4RkJOcC-29" target="xyvTZJhsJyeAS4RkJOcC-77" edge="1">
          <mxGeometry width="50" height="50" relative="1" as="geometry">
            <mxPoint x="820" y="290" as="sourcePoint" />
            <mxPoint x="870" y="240" as="targetPoint" />
          </mxGeometry>
        </mxCell>
        <mxCell id="xyvTZJhsJyeAS4RkJOcC-87" value="" style="endArrow=classic;startArrow=classic;html=1;rounded=0;fontFamily=Verdana;fontSize=11;curved=1;entryX=0.5;entryY=1;entryDx=0;entryDy=0;entryPerimeter=0;exitX=0.5;exitY=0;exitDx=0;exitDy=0;" parent="1" source="xyvTZJhsJyeAS4RkJOcC-77" target="xyvTZJhsJyeAS4RkJOcC-25" edge="1">
          <mxGeometry width="50" height="50" relative="1" as="geometry">
            <mxPoint x="590" y="920" as="sourcePoint" />
            <mxPoint x="640" y="870" as="targetPoint" />
          </mxGeometry>
        </mxCell>
        <mxCell id="fzDZzmI_oOpx8MPZNI7C-3" value="" style="outlineConnect=0;dashed=0;verticalLabelPosition=bottom;verticalAlign=top;align=center;html=1;shape=mxgraph.aws3.cloud_2;fillColor=#F58534;gradientColor=none;rounded=1;labelBackgroundColor=none;strokeWidth=1;fontFamily=Verdana;fontSize=11;" vertex="1" parent="1">
          <mxGeometry x="410" y="150" width="50" height="50" as="geometry" />
        </mxCell>
        <mxCell id="fzDZzmI_oOpx8MPZNI7C-4" value="" style="outlineConnect=0;dashed=0;verticalLabelPosition=bottom;verticalAlign=top;align=center;html=1;shape=mxgraph.aws3.virtual_private_cloud;fillColor=#F58534;gradientColor=none;rounded=1;labelBackgroundColor=none;strokeWidth=1;fontFamily=Verdana;fontSize=11;" vertex="1" parent="1">
          <mxGeometry x="299" y="200" width="60" height="40" as="geometry" />
        </mxCell>
      </root>
    </mxGraphModel>
  </diagram>
</mxfile>
